<?xml version="1.0" encoding="UTF-8"?>
<svg xmlns="http://www.w3.org/2000/svg" version="1.1" viewBox="0 0 345.8 357.8">
  <!-- Generator: Adobe Illustrator 29.7.1, SVG Export Plug-In . SVG Version: 2.1.1 Build 8)  -->
  <defs>
    <style>
      .st0 {
        fill: #231f20;
        stroke: #231f20;
        stroke-linejoin: round;
      }

      .st1 {
        fill: #fff;
      }

      .st2 {
        fill: #a79f98;
      }

      .st3 {
        fill: #0c0c0c;
      }
    </style>
  </defs>
  <g id="Layer_1">
    <g id="_x39_3Mv6F.tif">
      <g>
        <path class="st3" d="M52.2,338.8c2.4-2.3-8.3-8.9-10-10.5C-37.5,255,2.2,116.7,106.5,94.4c7.3-13.6,16.8-26,27.2-37.3-11.4-12.6-19.7-34.7-5.2-48.4s45.2-3.8,53.5,15.8c16.6-2,33.2-4.3,50.1-1.9,4.9-8.2,8.4-17.1,17.9-21,12.9-5.3,23.8,3.8,25.5,16.7.5,4.2-.9,15.9.6,18.4s18.7,10.8,22,12.9c34.8,22.8,50.2,38.3,47.4,82.4-2.1,33.4-23.7,48.2-54.8,53.4,1.2,19.6,1.3,38.6-1.2,58.2s-11.2,50.2-23.6,72.1-10.5,14.1-13.2,19.7-1.3,2-.9,3.6h0c1.4,4.1,1.4,7.9,0,19H52.3c-1.4-11.1-1.4-14.9,0-19h0ZM244.7,25.6c9.1.4,21.6,12.7,19.9-3.5-1.9-18.5-18-8.7-19.9,3.5ZM171.9,29.6c-5.2-8.4-11.9-16.1-22.6-16.9s-16.8,5.9-17.3,14.5,5.1,19.1,10.4,19.4,8.5-3.9,8.5-6.6-11.4-14.9-8-20.4c1.2-1.2,9.7,3.1,11.3,4.2s8.1,7.8,8.6,8.8,3.3,11.9,2.8,12.8-8.6,5.8-10.3,7.2c-28.3,24.1-47.5,56.9-57.5,92.6h-10.8c-1.7-5.3,11.6-33.2,10-34.8-11.5,1.6-23.7,8.3-33.2,15.1C6.1,167-7.9,262.6,44.2,313.9c4.6,4.5,8.8,8.5,14.2,12.2s21.8,12.7,23.2,12.7h54.4c-1.8-17.6-26-10.5-37.9-9.4-1.1-.8-1.6-12.8-2-15.5-1.3-10.5-2.3-18-6.5-27.9s-15.7-24.9-15.4-26.4c.4-2.2,11.3-2,13-1s9.9,14.3,12,16.9c8.7,10.8,24.5,28.3,37.5,33.3,2.3.9,6.1,3,5.3-1.3-.8-4.6-5-12.7-6.4-18.5-2.5-10.1-3.9-20.5-3.5-30.9,2.4.4,8.3-.8,10,.4s2.6,17.3,3.2,20.7c2.4,13,7,24.4,13.6,35.7s14.9,23,19.5,23.9,9.1.5,9.5-1.5c-2.5-6.9-6.2-16.2-7-23.4-.8-7-.5-20.1.1-27.3s5.1-27,6.8-28.1,10.8-1.5,11.1,2-3,11-3.7,14.3-6.4,34.4-1.7,35.2,9.6-4.1,11.7-5.2c11.4-6.5,22.4-17,30.6-27.3,2.5-3.2,11.1-17.5,12.4-18.5,2.7-2,8.2-.5,11.6-.9,2.5,2.6-11.1,26.8-13.6,30.8-5.7,9.2-10.5,12.4-13.4,23s-6.1,17.9-8,26.9c2.9-.5,8.6.9,11-.5s9.3-12,10.8-14.1c2.4-3.4,4.1-6.8,6.2-10.3,23.4-38.7,30.3-81.6,25.9-126.7-18.7,1.1-37.7.7-56.2-2.1s-15.6-2.6-16.6-3.3c-2.1-1.6-.5-8.7-1-11.5,11.3,1.4,22.5,3.9,33.9,5,28.4,2.6,54.4-.4,66.3-29.9.9-2.1,3.5-12.8,4.1-13,1.2-.3,9.6,0,10.4.5s3.1,18.2,5,19.5c4.3,3.1,7.4-7.8,7.8-10.5.8-4.8,2.2-17.1,2.1-21.8s-3.5-3.5-7.8-5.3-6.9-9.2-4.3-13.5,7-4.7,7.1-5.3c.5-3.4-5-8.9-7.1-11.3-17.3-19.9-54.1-41.2-79.6-47.6s-44.6-4.2-66.4,1.8c-.7-.2-3.7-7.5-4.7-9ZM216.7,321.9c-.7-.7-17.9,7.1-18.5,7.9-1,1.4,2.2,8.5,2.7,8.9,1.2.8,8.9.4,10.3-.8s6.5-15,5.5-16ZM159.9,338.8c.2-6.2-7.2-7-12-7-1.6,9.8,5.2,6.6,12,7Z"/>
        <path class="st2" d="M322.5,84.5c2.1,2.4,7.6,8,7.1,11.3s-6.4,4.1-7.1,5.3c-2.6,4.3-.5,11.5,4.3,13.5s7.7-1.4,7.8,5.3-1.3,17-2.1,21.8-3.5,13.6-7.8,10.5-4-18.8-5-19.5-9.3-.8-10.4-.5-3.3,10.9-4.1,13c-11.9,29.5-37.9,32.5-66.3,29.9l18.9-8.6c20.4-13.4,17-37.9,20.3-58.5,4.2-26.9,22.2-24.2,44.6-23.7ZM297.3,97.7c-8.9,1.7-10,14.8-1.8,17.3,17.5,5.4,16.1-20.1,1.8-17.3Z"/>
        <path class="st2" d="M96.1,313.9c.3,2.7.9,14.7,2,15.5,11.9-1.1,36.1-8.2,37.9,9.4h-54.4c-1.3,0-20.5-11-23.2-12.7-5.5-3.7-9.7-7.7-14.2-12.2h51.9Z"/>
        <path class="st2" d="M171.9,29.6l-9,3c-.5-1-7.3-7.9-8.6-8.8s-10.1-5.4-11.3-4.2c-3.4,5.5,8,19.2,8,20.4,0,2.7-5.6,6.8-8.5,6.6-5.3-.3-10.6-14.4-10.4-19.4.4-8.6,8.9-15.1,17.3-14.5s17.4,8.5,22.6,16.9Z"/>
        <path class="st2" d="M180.8,313.9c.8,7.2,4.5,16.5,7,23.4-.4,2-7.7,1.8-9.5,1.5-4.6-.9-16.7-19.2-19.5-23.9,6.7-2.3,14.9-.4,21.9-1Z"/>
        <path class="st2" d="M232.7,311.9c-.6,3,1.5,1.9,3.4,2,5.5.2,11-.1,16.5,0-2.1,3.5-3.8,6.9-6.2,10.3s-9.7,13.5-10.8,14.1c-2.3,1.4-8.1,0-11,.5,1.9-9.1,5.5-17.9,8-26.9Z"/>
        <path class="st2" d="M244.7,25.6c1.9-12.1,18.1-22,19.9-3.5,1.6,16.2-10.8,3.9-19.9,3.5Z"/>
        <path class="st3" d="M182.7,72.7c-2.1-1.3-20.6,2.5-16.3-4.2s8.9-7,10.2-7.8c16-9.9,31.6-9.9,46.7,1.8,2.7,2.1,17,17,16.5,19.4s-5.7.3-7.5.4c-18.3.9-34.4,14.1-47.6-5.2-.8-1.1-1.6-4.3-1.9-4.5ZM201.5,61.8c-6.6,2-4.3,14.2,4.6,11.6s4.3-14.2-4.6-11.6Z"/>
        <path class="st3" d="M297.3,97.7c14.3-2.8,15.7,22.6-1.8,17.3s-7.1-15.6,1.8-17.3Z"/>
      </g>
    </g>
    <circle class="st3" cx="204.2" cy="69" r="9.7"/>
    <circle class="st1" cx="204.2" cy="65.2" r="3.7"/>
  </g>
  <g id="Layer_2">
    <path class="st0" d="M214.8,275.1c6-4.4,10.4-6.5,19.3-10.9,4.8-23.2-1.1-46.1-6.3-68.8,2.9-4.8,3.8-7.2,5.6-12-1-3-6.1-4.6-10.6-7.6h-.6c-4.5,3-6.1,5.6-8.8,7.2,4.8,5.1,1.1,7.6,6,12.4-2.1,11.6,0,22.9-2.2,34.4-2.4,12-9.3,23.8-15.4,34.4,3.3,4.4,5.3,6.5,12.4,10.9h.6Z"/>
  </g>
</svg>